<svg width="22" height="22" viewBox="0 0 22 22" fill="none" xmlns="http://www.w3.org/2000/svg">
<path d="M20.3953 3.2013C19.3002 1.96453 17.7866 1.28348 16.1333 1.28348C14.8346 1.28348 13.6197 1.81195 12.6199 2.8117C11.953 3.47871 11.4026 4.32678 11 5.30093C10.5974 4.32678 10.0471 3.47875 9.38016 2.8117C8.38041 1.81195 7.16547 1.28348 5.86674 1.28348C4.21343 1.28348 2.69986 1.96458 1.60475 3.20134C0.584891 4.35295 0 5.92587 0 7.51678C0 9.42709 0.578016 11.3124 1.71793 13.1207C2.62066 14.5526 3.87612 15.9388 5.44955 17.2409C8.11559 19.4473 10.7396 20.6352 10.85 20.6847C10.9447 20.7271 11.0553 20.7271 11.15 20.6847C11.2604 20.6352 13.8844 19.4473 16.5504 17.2409C18.1238 15.9388 19.3793 14.5526 20.282 13.1207C21.422 11.3124 22 9.42709 22 7.51678C22 5.92587 21.4151 4.35295 20.3953 3.2013Z" fill="#FF6647"/>
<path d="M6.91621 17.2409C5.34278 15.9388 4.08732 14.5526 3.18459 13.1207C2.04467 11.3124 1.46665 9.42704 1.46665 7.51678C1.46665 5.92586 2.05154 4.35295 3.07132 3.2013C3.99257 2.16089 5.21009 1.51387 6.55772 1.33461C6.33059 1.30083 6.09997 1.28352 5.8667 1.28352C4.21339 1.28352 2.69981 1.96461 1.60471 3.20138C0.584891 4.35295 0 5.92586 0 7.51678C0 9.42708 0.578016 11.3124 1.71793 13.1207C2.62066 14.5526 3.87612 15.9388 5.44955 17.2409C8.11559 19.4473 10.7396 20.6352 10.85 20.6847C10.9447 20.7271 11.0553 20.7271 11.15 20.6847C11.1796 20.6714 11.39 20.5762 11.7333 20.4016C10.7961 19.925 8.8675 18.8558 6.91621 17.2409Z" fill="#E35336"/>
</svg>
